<?xml version="1.0" encoding="UTF-8" standalone="no"?>
<svg
   xmlns:dc="http://purl.org/dc/elements/1.1/"
   xmlns:cc="http://creativecommons.org/ns#"
   xmlns:rdf="http://www.w3.org/1999/02/22-rdf-syntax-ns#"
   xmlns:svg="http://www.w3.org/2000/svg"
   xmlns="http://www.w3.org/2000/svg"
   xmlns:sodipodi="http://sodipodi.sourceforge.net/DTD/sodipodi-0.dtd"
   xmlns:inkscape="http://www.inkscape.org/namespaces/inkscape"
   version="1.1"
   x="0px"
   y="0px"
   viewBox="0 0 77.199997 78.050003"
   xml:space="preserve"
   id="svg2"
   inkscape:version="0.91 r13725"
   sodipodi:docname="noun_1014483_cc.svg"
   width="77.199997"
   height="78.050003"><metadata
     id="metadata16"><rdf:RDF><cc:Work
         rdf:about=""><dc:format>image/svg+xml</dc:format><dc:type
           rdf:resource="http://purl.org/dc/dcmitype/StillImage" /><dc:title></dc:title></cc:Work></rdf:RDF></metadata><defs
     id="defs14" /><sodipodi:namedview
     pagecolor="#ffffff"
     bordercolor="#666666"
     borderopacity="1"
     objecttolerance="10"
     gridtolerance="10"
     guidetolerance="10"
     inkscape:pageopacity="0"
     inkscape:pageshadow="2"
     inkscape:window-width="3200"
     inkscape:window-height="1751"
     id="namedview12"
     showgrid="false"
     fit-margin-top="0"
     fit-margin-left="0"
     fit-margin-right="0"
     fit-margin-bottom="0"
     inkscape:zoom="1.888"
     inkscape:cx="38.55"
     inkscape:cy="26.5"
     inkscape:window-x="0"
     inkscape:window-y="24"
     inkscape:window-maximized="1"
     inkscape:current-layer="svg2" /><g
     id="g4"
     transform="translate(-11.45,-10.95)"><path
       d="m 87.8,12.8 c -1,-1 -2.6,-1 -3.5,0 L 50.5,46.5 15.8,11.7 c -1,-1 -2.6,-1 -3.5,0 -1,1 -1,2.6 0,3.5 L 47,50 12.2,84.8 c -1,1 -1,2.6 0,3.5 0.5,0.5 1.1,0.7 1.8,0.7 0.7,0 1.3,-0.2 1.8,-0.7 L 50.6,53.5 84.3,87.2 c 0.5,0.5 1.1,0.7 1.8,0.7 0.7,0 1.3,-0.2 1.8,-0.7 1,-1 1,-2.6 0,-3.5 L 54.1,50 87.8,16.3 c 0.9,-1 0.9,-2.6 0,-3.5 z"
       id="path6"
       inkscape:connector-curvature="0" /></g></svg>