<?xml version="1.0" encoding="UTF-8" standalone="no"?>
<svg
   xmlns:dc="http://purl.org/dc/elements/1.1/"
   xmlns:cc="http://creativecommons.org/ns#"
   xmlns:rdf="http://www.w3.org/1999/02/22-rdf-syntax-ns#"
   xmlns:svg="http://www.w3.org/2000/svg"
   xmlns="http://www.w3.org/2000/svg"
   xmlns:sodipodi="http://sodipodi.sourceforge.net/DTD/sodipodi-0.dtd"
   xmlns:inkscape="http://www.inkscape.org/namespaces/inkscape"
   version="1.1"
   x="0px"
   y="0px"
   viewBox="0 0 121.204 83.965987"
   enable-background="new 0 0 144.083 144"
   xml:space="preserve"
   id="svg2"
   inkscape:version="0.91 r13725"
   sodipodi:docname="digging.svg"
   width="121.20399"
   height="83.965988"><metadata
     id="metadata18"><rdf:RDF><cc:Work
         rdf:about=""><dc:format>image/svg+xml</dc:format><dc:type
           rdf:resource="http://purl.org/dc/dcmitype/StillImage" /><dc:title></dc:title></cc:Work></rdf:RDF></metadata><defs
     id="defs16" /><sodipodi:namedview
     pagecolor="#ffffff"
     bordercolor="#666666"
     borderopacity="1"
     objecttolerance="10"
     gridtolerance="10"
     guidetolerance="10"
     inkscape:pageopacity="0"
     inkscape:pageshadow="2"
     inkscape:window-width="3200"
     inkscape:window-height="1751"
     id="namedview14"
     showgrid="false"
     fit-margin-top="0"
     fit-margin-left="0"
     fit-margin-right="0"
     fit-margin-bottom="0"
     inkscape:zoom="1.3111111"
     inkscape:cx="-222.77717"
     inkscape:cy="23.982989"
     inkscape:window-x="0"
     inkscape:window-y="24"
     inkscape:window-maximized="1"
     inkscape:current-layer="svg2" /><path
     d="m 101.269,52.458996 -11.344,-11.344 31.279,-31.2789998 -2.121,-2.121 -31.279,31.2789998 -2.797,-2.798 -2.799,-2.798 L 113.487,2.1209962 111.366,-3.8146977e-6 80.087,31.276996 l -11.346,-11.346 -14.29,14.293 c -3.702,3.702 -5.734,7.714 -6.708,11.654 -0.759,-0.149 -1.534,-0.244 -2.326,-0.244 -3.784,0 -7.288,1.772 -9.534,4.729 -1.606,-1.261 -3.597,-1.959 -5.685,-1.959 -5.081,0 -9.215,4.134 -9.215,9.215 0,0.045 0,0.09 0.001,0.135 l -1.545,0 c -4.654,0 -8.44,3.787 -8.44,8.441 0,2.072 0.754,3.969 1.997,5.439 l -12.996,0 0,3 90.834,0 0,-3 -10.532,0 c 2.396,-1.212 4.627,-2.837 6.676,-4.885 l 14.291,-14.29 z m -29.874,19.175 -51.956,0 c -3,0 -5.44,-2.44 -5.44,-5.439 0,-3 2.44,-5.441 5.44,-5.441 l 5.077,0 -0.39,-1.815 c -0.096,-0.442 -0.144,-0.887 -0.144,-1.319 0,-3.427 2.788,-6.215 6.215,-6.215 1.864,0 3.613,0.825 4.798,2.265 l 1.43,1.734 1.054,-1.985 c 1.566,-2.95 4.607,-4.783 7.938,-4.783 3.331,0 6.373,1.833 7.938,4.783 l 1.054,1.985 1.429,-1.734 c 1.187,-1.439 2.936,-2.265 4.798,-2.265 3.428,0 6.217,2.788 6.217,6.215 0,0.433 -0.049,0.877 -0.145,1.319 l -0.389,1.815 5.076,0 c 3,0 5.441,2.441 5.441,5.441 0.001,2.999 -2.441,5.439 -5.441,5.439 z m 8.069,-2.958 c 0.24,-0.785 0.373,-1.618 0.373,-2.481 0,-4.654 -3.787,-8.441 -8.441,-8.441 l -1.545,0 c 0.002,-0.045 0.002,-0.09 0.002,-0.135 0,-5.081 -4.135,-9.215 -9.217,-9.215 -2.087,0 -4.076,0.698 -5.683,1.96 -1.158,-1.524 -2.655,-2.727 -4.349,-3.541 0.845,-3.549 2.65,-7.159 5.968,-10.478 l 12.169,-12.172 14.145,14.145 4.918,4.918 9.223,9.223 -12.17,12.17 c -1.667,1.664 -3.467,3.01 -5.393,4.047 z"
     id="path4"
     inkscape:connector-curvature="0" /><rect
     x="72.334999"
     y="80.965996"
     width="8.592"
     height="3"
     id="rect6" /><rect
     x="9.9089994"
     y="80.965996"
     width="57.594002"
     height="3"
     id="rect8" /></svg>