<?xml version="1.0" encoding="UTF-8" standalone="no"?>
<svg
   xmlns:dc="http://purl.org/dc/elements/1.1/"
   xmlns:cc="http://creativecommons.org/ns#"
   xmlns:rdf="http://www.w3.org/1999/02/22-rdf-syntax-ns#"
   xmlns:svg="http://www.w3.org/2000/svg"
   xmlns="http://www.w3.org/2000/svg"
   xmlns:sodipodi="http://sodipodi.sourceforge.net/DTD/sodipodi-0.dtd"
   xmlns:inkscape="http://www.inkscape.org/namespaces/inkscape"
   version="1.1"
   x="0px"
   y="0px"
   viewBox="0 0 109.62401 114.005"
   enable-background="new 0 0 144.083 144"
   xml:space="preserve"
   id="svg2"
   inkscape:version="0.91 r13725"
   sodipodi:docname="grow.svg"
   width="109.624"
   height="114.005"><metadata
     id="metadata20"><rdf:RDF><cc:Work
         rdf:about=""><dc:format>image/svg+xml</dc:format><dc:type
           rdf:resource="http://purl.org/dc/dcmitype/StillImage" /><dc:title></dc:title></cc:Work></rdf:RDF></metadata><defs
     id="defs18" /><sodipodi:namedview
     pagecolor="#ffffff"
     bordercolor="#666666"
     borderopacity="1"
     objecttolerance="10"
     gridtolerance="10"
     guidetolerance="10"
     inkscape:pageopacity="0"
     inkscape:pageshadow="2"
     inkscape:window-width="3200"
     inkscape:window-height="1751"
     id="namedview16"
     showgrid="false"
     fit-margin-top="0"
     fit-margin-left="0"
     fit-margin-right="0"
     fit-margin-bottom="0"
     inkscape:zoom="1.3111111"
     inkscape:cx="54.812496"
     inkscape:cy="39.003"
     inkscape:window-x="0"
     inkscape:window-y="24"
     inkscape:window-maximized="1"
     inkscape:current-layer="svg2" /><path
     d="m 44.216,95.203 -4.425,0 0,-22.182 c 0,-0.397 -0.158,-0.779 -0.439,-1.061 L 22.753,55.362 c -1.382,-1.382 -3.22,-2.144 -5.174,-2.144 l -0.001,0 c -1.029,0 -2.024,0.217 -2.94,0.619 l 0,-13.401 c 0,-4.035 -3.284,-7.318 -7.32,-7.318 C 3.283,33.118 0,36.401 0,40.436 l 0,35.083 c 0,0.397 0.158,0.779 0.439,1.061 l 12.762,12.762 0,5.861 -3.854,0 c -0.828,0 -1.5,0.672 -1.5,1.5 l 0,17.301 3,0 0,-15.801 31.869,0 0,15.801 3,0 0,-17.301 c 0,-0.828 -0.672,-1.5 -1.5,-1.5 z m -7.425,0 -20.59,0 0,-6.482 c 0,-0.397 -0.158,-0.779 -0.439,-1.061 L 3,74.898 3,40.436 c 0,-2.381 1.938,-4.318 4.318,-4.318 2.382,0 4.32,1.937 4.32,4.318 l 0,15.837 c -0.891,1.236 -1.379,2.711 -1.379,4.264 0,1.956 0.762,3.794 2.145,5.176 l 5.434,5.433 4.037,4.037 2.121,-2.121 -4.037,-4.037 -5.434,-5.433 c -0.816,-0.816 -1.266,-1.9 -1.266,-3.055 0,-1.153 0.449,-2.238 1.266,-3.054 0.817,-0.816 1.9,-1.265 3.054,-1.265 l 10e-4,0 c 1.153,0 2.237,0.45 3.053,1.265 l 16.158,16.159 0,21.561 z"
     id="path4"
     inkscape:connector-curvature="0" /><path
     d="m 102.307,33.117 c -4.035,0 -7.318,3.283 -7.318,7.318 l 0,13.402 c -0.916,-0.402 -1.912,-0.62 -2.941,-0.619 -1.955,0 -3.793,0.761 -5.176,2.144 L 70.273,71.96 c -0.281,0.281 -0.439,0.663 -0.439,1.061 l 0,22.183 -4.426,0 c -0.828,0 -1.5,0.672 -1.5,1.5 l 0,17.301 3,0 0,-15.801 31.871,0 0,15.801 3,0 0,-17.301 c 0,-0.828 -0.672,-1.5 -1.5,-1.5 l -3.854,0 0,-5.861 12.76,-12.763 c 0.281,-0.281 0.439,-0.663 0.439,-1.061 l 0,-35.083 c 0.001,-4.036 -3.282,-7.319 -7.317,-7.319 z m 4.318,41.781 -12.76,12.763 c -0.281,0.281 -0.439,0.663 -0.439,1.061 l 0,6.482 -20.592,0 0,-21.562 16.158,-16.157 c 0.816,-0.816 1.9,-1.266 3.055,-1.266 1.152,0 2.236,0.45 3.053,1.266 0.816,0.814 1.266,1.899 1.266,3.053 0,1.154 -0.449,2.238 -1.266,3.055 l -9.469,9.47 2.121,2.121 9.469,-9.47 c 1.383,-1.382 2.145,-3.22 2.145,-5.176 0,-1.552 -0.488,-3.027 -1.377,-4.262 l 0,-15.84 c 0,-2.381 1.938,-4.318 4.318,-4.318 2.38,0 4.318,1.937 4.318,4.318 l 0,34.462 z"
     id="path6"
     inkscape:connector-curvature="0" /><path
     d="m 76.729,36.409 c 0,-16.487 -20.023,-35.22 -20.875,-36.01 -0.576,-0.532 -1.463,-0.532 -2.04,0 -0.853,0.79 -20.875,19.522 -20.875,36.01 0,15.061 7.419,23.91 20.395,24.546 l 0,10.255 3,0 0,-10.255 C 69.309,60.319 76.729,51.47 76.729,36.409 Z M 53.334,57.956 C 42.109,57.338 35.939,49.754 35.939,36.409 c 0,-2.906 0.725,-5.932 1.896,-8.927 l 15.499,15.498 0,14.976 z m 0,-19.218 L 39.131,24.537 C 43.08,16.399 49.722,8.877 53.333,5.117 l 0,33.621 z m 3,-33.623 c 3.611,3.759 10.254,11.278 14.203,19.418 l -14.203,14.204 0,-33.622 z m 0,52.841 0,-14.976 15.5,-15.5 c 1.17,2.995 1.895,6.022 1.895,8.93 0,13.344 -6.17,20.928 -17.395,21.546 z"
     id="path8"
     inkscape:connector-curvature="0" /><rect
     x="53.334003"
     y="73.338997"
     width="3"
     height="5.4299998"
     id="rect10" /></svg>