<?xml version="1.0" encoding="UTF-8" standalone="no"?>
<svg
   xmlns:dc="http://purl.org/dc/elements/1.1/"
   xmlns:cc="http://creativecommons.org/ns#"
   xmlns:rdf="http://www.w3.org/1999/02/22-rdf-syntax-ns#"
   xmlns:svg="http://www.w3.org/2000/svg"
   xmlns="http://www.w3.org/2000/svg"
   xmlns:sodipodi="http://sodipodi.sourceforge.net/DTD/sodipodi-0.dtd"
   xmlns:inkscape="http://www.inkscape.org/namespaces/inkscape"
   version="1.1"
   x="0px"
   y="0px"
   viewBox="0 0 70.599998 70.099998"
   xml:space="preserve"
   id="svg2"
   inkscape:version="0.91 r13725"
   sodipodi:docname="money.svg"
   width="70.599998"
   height="70.099998"><metadata
     id="metadata18"><rdf:RDF><cc:Work
         rdf:about=""><dc:format>image/svg+xml</dc:format><dc:type
           rdf:resource="http://purl.org/dc/dcmitype/StillImage" /><dc:title></dc:title></cc:Work></rdf:RDF></metadata><defs
     id="defs16" /><sodipodi:namedview
     pagecolor="#ffffff"
     bordercolor="#666666"
     borderopacity="1"
     objecttolerance="10"
     gridtolerance="10"
     guidetolerance="10"
     inkscape:pageopacity="0"
     inkscape:pageshadow="2"
     inkscape:window-width="3200"
     inkscape:window-height="1751"
     id="namedview14"
     showgrid="false"
     fit-margin-top="0"
     fit-margin-left="0"
     fit-margin-right="0"
     fit-margin-bottom="0"
     inkscape:zoom="1.888"
     inkscape:cx="-151.16022"
     inkscape:cy="23"
     inkscape:window-x="0"
     inkscape:window-y="24"
     inkscape:window-maximized="1"
     inkscape:current-layer="svg2" /><style
     type="text/css"
     id="style4">
	.st0{fill:none;stroke:#000000;stroke-width:2;stroke-linecap:round;stroke-linejoin:round;stroke-miterlimit:10;}
	.st1{fill:none;stroke:#000000;stroke-linecap:round;stroke-linejoin:round;stroke-miterlimit:10;}
	.st2{fill:none;stroke:#000000;stroke-width:2;stroke-miterlimit:10;}
</style><path
     d="m 14,36 0,25.9 C 7.6,61.1 2.6,55.7 2.6,49 c 0,-0.6 -0.4,-1 -1,-1 -0.6,0 -1,0.4 -1,1 0,7.7 5.9,14.1 13.4,14.9 l 0,5.2 c 0,0.6 0.4,1 1,1 0.6,0 1,-0.4 1,-1 L 16,64 C 24,63.8 30.5,57.2 30.5,49.1 30.5,41 24,34.4 16,34.2 l 0,-26 c 6.7,0.5 12,6.1 12,12.9 0,0.6 0.4,1 1,1 0.6,0 1,-0.4 1,-1 C 30,13.2 23.8,6.7 16,6.2 l 0,-5.1 c 0,-0.6 -0.4,-1 -1,-1 -0.6,0 -1,0.4 -1,1 l 0,5.1 C 6.2,6.7 0,13.2 0,21.1 0,29 6.2,35.5 14,36 Z m 14.5,13 c 0,7 -5.6,12.7 -12.5,12.9 L 16,36.1 C 22.9,36.3 28.5,42 28.5,49 Z M 14,8.2 14,34 C 7.3,33.5 2,27.9 2,21.1 2,14.3 7.3,8.7 14,8.2 Z"
     id="path6"
     inkscape:connector-curvature="0" /><path
     d="m 55.1,0 c -0.6,0 -1,0.4 -1,1 l 0,5.1 c -7.8,0.5 -14,7 -14,14.9 0,7.9 6.2,14.4 14,14.9 l 0,25.9 C 47.7,61 42.7,55.6 42.7,48.9 c 0,-0.6 -0.4,-1 -1,-1 -0.6,0 -1,0.4 -1,1 0,7.7 5.9,14.1 13.4,14.9 l 0,5.2 c 0,0.6 0.4,1 1,1 0.6,0 1,-0.4 1,-1 l 0,-5.1 c 8,-0.2 14.5,-6.8 14.5,-14.9 0,-8.1 -6.5,-14.7 -14.5,-14.9 l 0,-25.9 c 6.7,0.5 12,6.1 12,12.9 0,0.6 0.4,1 1,1 0.6,0 1,-0.4 1,-1 0,-7.9 -6.2,-14.4 -14,-14.9 l 0,-5.1 C 56.1,0.5 55.6,0 55.1,0 Z m -13,21.1 c 0,-6.8 5.3,-12.4 12,-12.9 l 0,25.8 c -6.7,-0.5 -12,-6.1 -12,-12.9 z M 68.6,49 c 0,7 -5.6,12.7 -12.5,12.9 l 0,-25.8 C 63,36.3 68.6,42 68.6,49 Z"
     id="path8"
     inkscape:connector-curvature="0" /></svg>