<?xml version="1.0" encoding="UTF-8" standalone="no"?>
<svg
   xmlns:dc="http://purl.org/dc/elements/1.1/"
   xmlns:cc="http://creativecommons.org/ns#"
   xmlns:rdf="http://www.w3.org/1999/02/22-rdf-syntax-ns#"
   xmlns:svg="http://www.w3.org/2000/svg"
   xmlns="http://www.w3.org/2000/svg"
   xmlns:sodipodi="http://sodipodi.sourceforge.net/DTD/sodipodi-0.dtd"
   xmlns:inkscape="http://www.inkscape.org/namespaces/inkscape"
   version="1.1"
   x="0px"
   y="0px"
   viewBox="0 0 76.199997 88.920135"
   xml:space="preserve"
   id="svg2"
   inkscape:version="0.91 r13725"
   sodipodi:docname="peach.svg"
   width="76.199997"
   height="88.920135"><metadata
     id="metadata18"><rdf:RDF><cc:Work
         rdf:about=""><dc:format>image/svg+xml</dc:format><dc:type
           rdf:resource="http://purl.org/dc/dcmitype/StillImage" /><dc:title></dc:title></cc:Work></rdf:RDF></metadata><defs
     id="defs16" /><sodipodi:namedview
     pagecolor="#ffffff"
     bordercolor="#666666"
     borderopacity="1"
     objecttolerance="10"
     gridtolerance="10"
     guidetolerance="10"
     inkscape:pageopacity="0"
     inkscape:pageshadow="2"
     inkscape:window-width="3200"
     inkscape:window-height="1751"
     id="namedview14"
     showgrid="false"
     fit-margin-top="0"
     fit-margin-left="0"
     fit-margin-right="0"
     fit-margin-bottom="0"
     inkscape:zoom="1.888"
     inkscape:cx="-157.39902"
     inkscape:cy="29.939963"
     inkscape:window-x="0"
     inkscape:window-y="24"
     inkscape:window-maximized="1"
     inkscape:current-layer="svg2" /><style
     type="text/css"
     id="style4">
	.st0{display:none;}
</style><g
     id="g6"
     transform="translate(-11.9,-4.779861)"><path
       d="m 88.1,53.7 c 0,-19 -12.8,-34.5 -28.6,-34.5 -2.5,0 -5,0.4 -7.4,1.2 0.1,-5.1 2.4,-9.8 6.4,-13 0.6,-0.5 0.7,-1.5 0.2,-2.1 -0.5,-0.6 -1.5,-0.7 -2.1,-0.2 -4.8,3.8 -7.5,9.6 -7.5,15.7 -2.8,-1 -5.6,-1.6 -8.6,-1.6 -15.8,0 -28.6,15.5 -28.6,34.5 0,18 11.6,33.1 26.4,34.4 0,0 0,0 0.1,0 0,0 0.1,0 0.1,0 0,0 0,0 0,0 4.8,0.5 10,2.1 10,4.1 0,0.8 0.7,1.5 1.5,1.5 0.8,0 1.5,-0.7 1.5,-1.5 0,-2 5.1,-3.7 10,-4.1 l 0.2,0 c 0,0 0,0 0,0 C 76.5,86.7 88.1,71.6 88.1,53.7 Z M 61.4,85.1 c 0,0 0,0 0,0 0,0 0,0 0,0 l -0.2,0 c -2.3,0.2 -8.4,1 -11.2,3.8 -2.7,-2.6 -8.3,-3.5 -11.2,-3.8 0,0 0,0 0,0 0,0 0,0 -0.1,0 0,0 -0.1,0 -0.1,0 0,0 0,0 -0.1,0 -13.3,-1.2 -23.7,-15 -23.7,-31.4 0,-17.4 11.5,-31.5 25.6,-31.5 3.1,0 6.1,0.7 8.9,2 8.1,3.7 14.2,12.4 16.1,22.7 0.1,0.8 0.9,1.3 1.7,1.2 0.8,-0.1 1.4,-0.9 1.2,-1.7 C 66.6,36.2 61.2,27.7 53.6,23 c 1.9,-0.6 3.9,-0.8 5.9,-0.8 14.1,0 25.6,14.1 25.6,31.5 0,16.4 -10.4,30.2 -23.7,31.4 z"
       id="path8"
       inkscape:connector-curvature="0" /></g></svg>