<?xml version="1.0" encoding="UTF-8" standalone="no"?>
<svg
   xmlns:dc="http://purl.org/dc/elements/1.1/"
   xmlns:cc="http://creativecommons.org/ns#"
   xmlns:rdf="http://www.w3.org/1999/02/22-rdf-syntax-ns#"
   xmlns:svg="http://www.w3.org/2000/svg"
   xmlns="http://www.w3.org/2000/svg"
   xmlns:sodipodi="http://sodipodi.sourceforge.net/DTD/sodipodi-0.dtd"
   xmlns:inkscape="http://www.inkscape.org/namespaces/inkscape"
   version="1.1"
   x="0px"
   y="0px"
   viewBox="0 0 76.599998 77.300003"
   xml:space="preserve"
   id="svg2"
   inkscape:version="0.91 r13725"
   sodipodi:docname="potted-planets.svg"
   width="76.599998"
   height="77.300003"><metadata
     id="metadata18"><rdf:RDF><cc:Work
         rdf:about=""><dc:format>image/svg+xml</dc:format><dc:type
           rdf:resource="http://purl.org/dc/dcmitype/StillImage" /><dc:title></dc:title></cc:Work></rdf:RDF></metadata><defs
     id="defs16" /><sodipodi:namedview
     pagecolor="#ffffff"
     bordercolor="#666666"
     borderopacity="1"
     objecttolerance="10"
     gridtolerance="10"
     guidetolerance="10"
     inkscape:pageopacity="0"
     inkscape:pageshadow="2"
     inkscape:window-width="3200"
     inkscape:window-height="1751"
     id="namedview14"
     showgrid="false"
     inkscape:zoom="1.888"
     inkscape:cx="-66.84322"
     inkscape:cy="26.9"
     inkscape:window-x="0"
     inkscape:window-y="24"
     inkscape:window-maximized="1"
     inkscape:current-layer="svg2"
     fit-margin-top="0"
     fit-margin-left="0"
     fit-margin-right="0"
     fit-margin-bottom="0" /><style
     type="text/css"
     id="style4">
	.st0{fill:none;stroke:#000000;stroke-width:2;stroke-linecap:round;stroke-linejoin:round;stroke-miterlimit:10;}
	.st1{fill:none;stroke:#000000;stroke-width:2;stroke-miterlimit:10;}
</style><path
     d="m 71.2,76.3 2.9,-22.8 1.5,0 c 0.6,0 1,-0.4 1,-1 l 0,-9.3 c 0,-0.6 -0.4,-1 -1,-1 l -15.3,0 c 0,0 0,0 0,-0.1 l 0,-8 c 0.7,0.3 1.5,0.5 2.3,0.5 1.8,0 3.5,-0.8 4.6,-2.4 2.2,-3.1 1.5,-9.7 1.4,-10.4 0,0 0,0 0,0 0,-0.1 -0.1,-0.2 -0.1,-0.3 0,0 0,-0.1 0,-0.1 -0.1,-0.1 -0.1,-0.2 -0.2,-0.2 0,0 0,0 -0.1,-0.1 0,0 0,0 0,0 0,0 0,0 0,0 C 68.1,21 68,21 67.8,20.9 c 0,0 -0.1,0 -0.1,0 -0.1,0 -0.2,0 -0.3,0 0,0 0,0 0,0 -0.1,0 -2,0.5 -4,1.3 -2.9,-5.2 -13,-9.3 -13.4,-9.4 0,0 0,0 0,0 -0.1,0 -0.2,0 -0.3,0 0,0 -0.1,0 -0.1,0 -0.1,0 -0.2,0 -0.3,0.1 0,0 0,0 -0.1,0 0,0 0,0 0,0 l 0,0 c -0.1,0.1 -0.2,0.2 -0.3,0.3 0,0 0,0.1 0,0.1 -0.1,0.1 -0.1,0.2 -0.1,0.3 0,0 0,0 0,0 -0.1,0.5 -3,11.2 -0.2,16.6 1.5,2.9 4.5,4.6 7.6,4.6 0.8,0 1.6,-0.1 2.3,-0.3 l 0,7.7 c 0,0 0,0 0,0.1 l -16.5,0 c -0.6,0 -1,0.4 -1,1 l 0,9.3 c 0,0.6 0.4,1 1,1 l 1.5,0 2.9,22.8 c 0.1,0.5 0.5,0.9 1,0.9 l 22.8,0 c 0.5,-0.2 0.9,-0.5 1,-1 z M 57.9,32.5 c -3,1 -6.3,-0.4 -7.7,-3.2 C 48.5,26 49.3,20.2 50,16.8 l 7.9,15.7 z m 3.6,-9.3 c -1.4,0.7 -2.7,1.6 -3.5,2.7 -0.3,0.4 -0.5,0.8 -0.6,1.2 L 51.8,15.9 c 3,1.5 7.9,4.2 9.7,7.3 z m -0.1,9.3 5.3,-7.5 c 0,2.2 -0.2,4.9 -1.2,6.2 -0.9,1.3 -2.6,1.8 -4.1,1.3 z m -1.6,-1.2 c -1,-1.2 -1.1,-3 -0.1,-4.3 1,-1.4 3.4,-2.5 5.5,-3.2 l -5.4,7.5 z M 43,51.5 l 0,-7.3 31.6,0 0,7.3 -31.6,0 z m 26.3,23.6 -21,0 -2.8,-21.4 26.5,0 -2.7,21.4 z"
     id="path6"
     inkscape:connector-curvature="0" /><path
     d="m 0,43.2 0,9.3 c 0,0.6 0.4,1 1,1 l 1.5,0 3,22.8 c 0.1,0.5 0.5,0.9 1,0.9 l 22.8,0 c 0.5,0 0.9,-0.4 1,-0.9 l 2.9,-22.8 1.5,0 c 0.6,0 1,-0.4 1,-1 l 0,-9.3 c 0,-0.6 -0.4,-1 -1,-1 l -15.7,0 c 0,0 0,0 0,-0.1 l 0,-12.3 c 1.2,0.7 2.5,1 3.8,1 2.4,0 4.8,-1.1 6.3,-3.3 3.1,-4.4 2,-14.4 2,-14.9 0,0 0,0 0,0 0,-0.1 -0.1,-0.2 -0.1,-0.3 0,0 0,-0.1 0,-0.1 -0.1,-0.1 -0.1,-0.2 -0.2,-0.2 0,0 0,0 -0.1,-0.1 0,0 0,0 0,0 0,0 0,0 0,0 -0.2,0.1 -0.3,0 -0.5,0 0,0 -0.1,0 -0.1,0 -0.1,0 -0.2,0 -0.3,0 0,0 0,0 0,0 -0.2,0 -3.1,0.7 -6.2,2 0,0 0,0 0,0 C 19.8,6.3 4.8,0.3 4.2,0.1 c 0,0 0,0 0,0 C 4.1,0.1 4,0.1 3.9,0 3.9,0 3.8,0 3.8,0 3.7,0 3.6,0 3.5,0.1 c 0,0 0,0 -0.1,0 0,0 0,0 0,0 0,0 0,0 0,0 -0.1,0.1 -0.2,0.2 -0.3,0.3 0,0 0,0.1 0,0.1 C 3,0.6 3,0.7 3,0.8 c 0,0 0,0 0,0 -0.2,0.7 -4.3,16.1 -0.4,23.9 1.4,2.8 3.9,4.9 6.9,5.9 1.2,0.4 2.5,0.6 3.7,0.6 1.3,0 2.6,-0.2 3.9,-0.7 l 0,11.8 c 0,0 0,0 0,0.1 l -16,0 C 0.5,42.2 0,42.7 0,43.2 Z M 16.6,28.4 C 14.5,29.2 12.2,29.3 10,28.6 7.5,27.8 5.5,26 4.3,23.7 1.6,18.4 3.2,8.6 4.2,3.9 l 12.4,24.5 z m 5.2,-13.7 c -2.1,1.1 -4.2,2.4 -5.3,4.1 -0.6,0.8 -1,1.7 -1.2,2.6 L 6,3 c 4.4,2 13.2,6.5 15.8,11.7 z m -1.4,13.6 8.9,-12.6 c 0.1,3.2 0,8.2 -1.8,10.7 -1.7,2.3 -4.7,3.1 -7.1,1.9 z m -1.7,-1.1 c -1.9,-1.9 -2.2,-5 -0.6,-7.3 1.8,-2.6 6.5,-4.4 9.5,-5.3 l -8.9,12.6 z m -14.1,26.5 26.5,0 -2.7,21.5 -21,0 L 4.6,53.7 Z M 2,44.2 l 31.6,0 0,7.3 -31.6,0 0,-7.3 z"
     id="path8"
     inkscape:connector-curvature="0" /></svg>