<?xml version="1.0" encoding="UTF-8" standalone="no"?>
<svg
   xmlns:dc="http://purl.org/dc/elements/1.1/"
   xmlns:cc="http://creativecommons.org/ns#"
   xmlns:rdf="http://www.w3.org/1999/02/22-rdf-syntax-ns#"
   xmlns:svg="http://www.w3.org/2000/svg"
   xmlns="http://www.w3.org/2000/svg"
   xmlns:sodipodi="http://sodipodi.sourceforge.net/DTD/sodipodi-0.dtd"
   xmlns:inkscape="http://www.inkscape.org/namespaces/inkscape"
   version="1.1"
   x="0px"
   y="0px"
   viewBox="0 0 68.058044 78.5"
   xml:space="preserve"
   id="svg2"
   inkscape:version="0.91 r13725"
   sodipodi:docname="science.svg"
   width="68.058044"
   height="78.5"><metadata
     id="metadata18"><rdf:RDF><cc:Work
         rdf:about=""><dc:format>image/svg+xml</dc:format><dc:type
           rdf:resource="http://purl.org/dc/dcmitype/StillImage" /><dc:title></dc:title></cc:Work></rdf:RDF></metadata><defs
     id="defs16" /><sodipodi:namedview
     pagecolor="#ffffff"
     bordercolor="#666666"
     borderopacity="1"
     objecttolerance="10"
     gridtolerance="10"
     guidetolerance="10"
     inkscape:pageopacity="0"
     inkscape:pageshadow="2"
     inkscape:window-width="3200"
     inkscape:window-height="1751"
     id="namedview14"
     showgrid="false"
     fit-margin-top="0"
     fit-margin-left="0"
     fit-margin-right="0"
     fit-margin-bottom="0"
     inkscape:zoom="1.888"
     inkscape:cx="33.679023"
     inkscape:cy="26.2"
     inkscape:window-x="0"
     inkscape:window-y="24"
     inkscape:window-maximized="1"
     inkscape:current-layer="svg2" /><style
     type="text/css"
     id="style4">
	.st0{fill:none;stroke:#000000;stroke-width:2;stroke-linecap:round;stroke-linejoin:round;stroke-miterlimit:10;}
	.st1{fill:none;stroke:#000000;stroke-width:2;stroke-miterlimit:10;}
</style><path
     d="m 62.479023,32.7 c 5.1,-6.3 6.8,-11.5 4.7,-14.8 -2.1,-3.2 -7.5,-3.9 -15.4,-2 -1.9,0.5 -3.9,1.1 -6,1.9 -2.4,-10.8 -6.6,-17.8 -11.5,-17.8 -2.8,0 -5.3,2.3 -7.5,6.2 -0.1,0 -0.2,0 -0.3,0 -1.6,0 -2.9,1.3 -2.9,2.9 0,0.9 0.4,1.7 1,2.2 -0.7,2 -1.3,4.2 -1.9,6.6 -2.2,-0.8 -4.4,-1.5 -6.4,-2 -7.7999999,-2 -13.2999999,-1.3 -15.3999999,2 -2.1,3.2 -0.4,8.5 4.7,14.8 1.7,2.1 3.7,4.2 5.9999999,6.4 -1.5,1.4 -2.8999999,2.8 -4.1999999,4.2 -0.3,-0.1 -0.5,-0.1 -0.8,-0.1 -1.6,0 -2.9,1.3 -2.9,2.9 0,0.5 0.1,1 0.4,1.4 -3.9,5.4 -5,9.8 -3.1,12.7 1.3,2.1 4,3 7.6,3 3.7999999,0 8.5999999,-1.1 13.9999999,-3.1 2.4,11.1 6.7,18.4 11.7,18.4 5,0 9.2,-7.2 11.6,-18.3 5.2,1.9 9.9,2.9 13.6,2.9 3.6,0 6.3,-1 7.6,-3 1.8,-2.9 0.7,-7.3 -3,-12.6 0.3,-0.4 0.4,-1 0.4,-1.5 0,-1.6 -1.3,-2.9 -2.9,-2.9 -0.3,0 -0.7,0.1 -1,0.2 -1.3,-1.4 -2.7,-2.8 -4.2,-4.2 2.4,-2.1 4.4,-4.3 6.1,-6.4 z m -36.1,-20.6 c 0.1,0 0.1,0 0,0 1.7,0 3,-1.3 3,-2.9 0,-0.8 -0.3,-1.5 -0.9,-2.1 1.8,-3.3 3.8,-5.1 5.7,-5.1 3.6,0 7.4,6.2 9.7,16.5 -3.2,1.3 -6.5,2.8 -9.9,4.6 -3.2,-1.7 -6.4,-3.2 -9.5,-4.5 0.6,-2.3 1.3,-4.5 1.9,-6.5 z m 19.6,27.2 c 0,2 -0.1,4 -0.1,5.9 -1.8,1.3 -3.6,2.5 -5.5,3.7 -2.1,1.4 -4.2,2.6 -6.3,3.7 -2,-1.1 -4.1,-2.4 -6.3,-3.7 -1.7,-1.1 -3.4,-2.2 -5,-3.4 -0.1,-2 -0.2,-4.1 -0.2,-6.2 0,-2.3 0.1,-4.6 0.2,-6.7 1.6,-1.1 3.3,-2.3 5,-3.4 2.1,-1.3 4.2,-2.6 6.3,-3.7 2.1,1.2 4.2,2.4 6.3,3.7 1.9,1.2 3.7,2.4 5.5,3.7 0.1,2.1 0.1,4.2 0.1,6.4 z m 1.9,-4.8 c 2,1.5 3.9,3.1 5.6,4.6 -1.7,1.5 -3.6,3.1 -5.6,4.6 0.1,-1.4 0.1,-2.9 0.1,-4.4 0,-1.6 0,-3.2 -0.1,-4.8 z m -2.2,13.3 c -0.3,3.6 -0.7,6.9 -1.2,9.9 -2.6,-1.1 -5.4,-2.3 -8.3,-3.9 1.7,-1 3.5,-2 5.3,-3.2 1.4,-0.9 2.8,-1.8 4.2,-2.8 z m -13.7,6 c -2.7,1.4 -5.4,2.7 -7.9,3.7 -0.5,-2.9 -0.9,-6 -1.2,-9.4 1.2,0.8 2.5,1.7 3.8,2.5 1.8,1.2 3.6,2.2 5.3,3.2 z m -11.3,-9.7 c -2.2,-1.6 -4.2,-3.3 -6.1,-5 1.9,-1.7 3.9,-3.3 6.1,-5 -0.1,1.7 -0.1,3.4 -0.1,5.2 0,1.6 0.1,3.2 0.1,4.8 z m 6,-16.5 c -1.3,0.8 -2.5,1.6 -3.7,2.5 0.3,-3.3 0.7,-6.4 1.2,-9.3 2.5,1 5.1,2.3 7.8,3.6 -1.8,1 -3.5,2 -5.3,3.2 z m 14.8,0 c -1.8,-1.1 -3.5,-2.2 -5.3,-3.2 2.8,-1.5 5.6,-2.7 8.2,-3.8 0.6,3 1,6.3 1.3,9.8 -1.4,-1 -2.8,-1.9 -4.2,-2.8 z M 7.1790231,31.5 c -4.4,-5.5 -6.1,-10 -4.6,-12.4 0.9,-1.4 3,-2.2 5.9,-2.2 1.9999999,0 4.4999999,0.4 7.2999999,1.1 2.1,0.5 4.2,1.2 6.5,2.1 -0.7,3.5 -1.2,7.4 -1.5,11.5 -2.8,2 -5.4,4.1 -7.7,6.2 -2.2,-2.2 -4.1999999,-4.3 -5.8999999,-6.3 z m -4.5,27.7 c -1.3,-2.1 -0.3,-5.8 2.9,-10.3 0.3,0.1 0.7,0.2 1.1,0.2 1.6,0 2.9,-1.3 2.9,-2.9 0,-0.6 -0.2,-1.1 -0.5,-1.6 1.1999999,-1.3 2.5999999,-2.7 3.9999999,-4 2.3,2.1 4.9,4.2 7.7,6.2 0.3,4.1 0.7,8 1.4,11.6 -10.1,3.7 -17.4999999,3.9 -19.4999999,0.8 z M 34.279023,76.6 c -3.7,0 -7.6,-6.4 -9.8,-17.1 3.1,-1.2 6.3,-2.7 9.6,-4.5 3.5,1.9 6.8,3.4 10,4.7 -2.3,10.5 -6.1,16.9 -9.8,16.9 z m 24.8,-32 c -0.3,0.4 -0.4,0.9 -0.4,1.5 0,1.6 1.3,2.9 2.9,2.9 0.3,0 0.6,-0.1 0.9,-0.2 3.2,4.5 4.3,8.2 2.9,10.3 -2,3.1 -9.2,2.9 -19.2,-0.8 0.7,-3.7 1.2,-7.8 1.5,-12.1 2.6,-1.9 5,-3.9 7.2,-5.8 1.6,1.5 3,2.8 4.2,4.2 z m -4.1,-6.8 c -2.2,-2 -4.6,-3.9 -7.2,-5.9 -0.3,-4.3 -0.8,-8.4 -1.5,-12 2.1,-0.8 4.1,-1.4 6.1,-1.9 2.8,-0.7 5.3,-1.1 7.3,-1.1 2.9,0 5,0.7 5.9,2.2 1.5,2.4 -0.1,7 -4.6,12.4 -1.7,2 -3.7,4.1 -6,6.3 z"
     id="path6"
     inkscape:connector-curvature="0" /><path
     d="m 34.679023,29.6 c -0.1,-0.1 -0.2,-0.1 -0.2,-0.2 0,0 0,0 -0.1,-0.1 -0.1,-0.1 -0.3,-0.1 -0.4,-0.1 0,0 0,0 0,0 -0.1,0 -0.3,0 -0.4,0.1 0,0 -0.1,0 -0.1,0.1 -0.1,0 -0.2,0.1 -0.2,0.2 0,0 0,0 0,0 -0.3,0.3 -6.2,6.9 -6.2,11.7 0,1.8 0.7,3.6 2,4.9 1.3,1.3 3,2 4.8,2 0,0 0,0 0,0 0,0 0,0 0,0 1.8,0 3.5,-0.7 4.8,-2 1.3,-1.3 2,-3 2,-4.8 0.1,-4.9 -5.8,-11.5 -6,-11.8 0,0 0,0 0,0 z m -5.7,11.8 c 0,-2.4 2.1,-5.8 3.9,-8.2 l -0.1,13 c -0.9,-0.2 -1.8,-0.6 -2.4,-1.3 -0.9,-1 -1.4,-2.2 -1.4,-3.5 z m 8.3,3.4 c -0.7,0.7 -1.5,1.1 -2.4,1.3 l 0.1,-13 c 1.8,2.4 3.8,5.8 3.8,8.3 0,1.3 -0.6,2.5 -1.5,3.4 z"
     id="path8"
     inkscape:connector-curvature="0" /></svg>