<?xml version="1.0" encoding="UTF-8" standalone="no"?>
<svg
   xmlns:dc="http://purl.org/dc/elements/1.1/"
   xmlns:cc="http://creativecommons.org/ns#"
   xmlns:rdf="http://www.w3.org/1999/02/22-rdf-syntax-ns#"
   xmlns:svg="http://www.w3.org/2000/svg"
   xmlns="http://www.w3.org/2000/svg"
   xmlns:sodipodi="http://sodipodi.sourceforge.net/DTD/sodipodi-0.dtd"
   xmlns:inkscape="http://www.inkscape.org/namespaces/inkscape"
   version="1.1"
   x="0px"
   y="0px"
   viewBox="0 0 81.5 77.800003"
   xml:space="preserve"
   id="svg2"
   inkscape:version="0.91 r13725"
   sodipodi:docname="noun_900653_cc.svg"
   width="81.5"
   height="77.800003"><metadata
     id="metadata20"><rdf:RDF><cc:Work
         rdf:about=""><dc:format>image/svg+xml</dc:format><dc:type
           rdf:resource="http://purl.org/dc/dcmitype/StillImage" /><dc:title></dc:title></cc:Work></rdf:RDF></metadata><defs
     id="defs18" /><sodipodi:namedview
     pagecolor="#ffffff"
     bordercolor="#666666"
     borderopacity="1"
     objecttolerance="10"
     gridtolerance="10"
     guidetolerance="10"
     inkscape:pageopacity="0"
     inkscape:pageshadow="2"
     inkscape:window-width="3200"
     inkscape:window-height="1751"
     id="namedview16"
     showgrid="false"
     fit-margin-top="0"
     fit-margin-left="0"
     fit-margin-right="0"
     fit-margin-bottom="0"
     inkscape:zoom="1.888"
     inkscape:cx="41.4"
     inkscape:cy="26.2"
     inkscape:window-x="0"
     inkscape:window-y="24"
     inkscape:window-maximized="1"
     inkscape:current-layer="svg2" /><style
     type="text/css"
     id="style4">
	.st0{fill:none;stroke:#000000;stroke-width:2;stroke-linecap:round;stroke-linejoin:round;stroke-miterlimit:10;}
</style><g
     id="g6"
     transform="translate(-8.6,-10.9)"><path
       d="m 25,62.2 0,25.5 c 0,0.6 0.4,1 1,1 0.6,0 1,-0.4 1,-1 l 0,-25.5 c 9.1,-0.5 16.4,-8.1 16.4,-17.4 0,-9.6 -7.8,-17.4 -17.4,-17.4 -9.6,0 -17.4,7.9 -17.4,17.5 0,9.2 7.2,16.8 16.4,17.3 z m 1,-32.7 c 8.5,0 15.4,6.9 15.4,15.4 C 41.4,53 35,59.7 27,60.2 l 0,-4.9 7.3,-7.3 c 0.4,-0.4 0.4,-1 0,-1.4 -0.4,-0.4 -1,-0.4 -1.4,0 L 27,52.5 27,42 c 0,-0.6 -0.4,-1 -1,-1 -0.6,0 -1,0.4 -1,1 l 0,10.5 -5.9,-5.9 c -0.4,-0.4 -1,-0.4 -1.4,0 -0.4,0.4 -0.4,1 0,1.4 l 7.3,7.3 0,4.9 C 17,59.7 10.6,53 10.6,44.8 10.6,36.4 17.5,29.5 26,29.5 Z"
       id="path8"
       inkscape:connector-curvature="0" /><path
       d="m 67.1,54.9 0,32.8 c 0,0.6 0.4,1 1,1 0.6,0 1,-0.4 1,-1 l 0,-32.8 c 11.7,-0.5 21,-10.2 21,-22 0,-12.1 -9.9,-22 -22,-22 -12.1,0 -22,9.9 -22,22 0,5 1.7,9.8 4.8,13.7 -5.6,1.1 -9.9,6 -9.9,11.9 0,6.4 4.9,11.6 11.1,12.1 l 0,17 c 0,0.6 0.4,1 1,1 0.6,0 1,-0.4 1,-1 l 0,-17 c 6.2,-0.5 11.1,-5.7 11.1,-12.1 0,-1.4 -0.2,-2.7 -0.7,-4 1,0.3 1.8,0.4 2.6,0.4 z m 1,-41.9 c 11,0 20,9 20,20 0,10.7 -8.4,19.4 -19,19.9 l 0,-6.7 9.4,-9.4 c 0.4,-0.4 0.4,-1 0,-1.4 -0.4,-0.4 -1,-0.4 -1.4,0 l -8,8 0,-14.2 c 0,-0.6 -0.4,-1 -1,-1 -0.6,0 -1,0.4 -1,1 l 0,14.1 -8,-8 c -0.4,-0.4 -1,-0.4 -1.4,0 -0.4,0.4 -0.4,1 0,1.4 l 9.4,9.4 0,6.7 C 66,52.7 64.8,52.6 63.6,52.3 61.5,48.8 57.7,46.5 53.4,46.4 50,42.8 48.1,38 48.1,33 c 0,-11 9,-20 20,-20 z M 54.2,68.7 54.2,65.8 59,61 c 0.4,-0.4 0.4,-1 0,-1.4 -0.4,-0.4 -1,-0.4 -1.4,0 l -3.4,3.4 0,-6.4 c 0,-0.6 -0.4,-1 -1,-1 -0.6,0 -1,0.4 -1,1 l 0,6.4 -3.4,-3.4 c -0.4,-0.4 -1,-0.4 -1.4,0 -0.4,0.4 -0.4,1 0,1.4 l 4.9,4.9 0,2.9 C 47.2,68.3 43.2,64 43.2,58.7 c 0,-5.5 4.4,-10 9.9,-10.1 0,0 0,0 0,0 0,0 0.2,0 0.2,0 5.6,0 10.1,4.6 10.1,10.1 -0.1,5.2 -4.1,9.5 -9.2,10 z"
       id="path10"
       inkscape:connector-curvature="0" /></g><flowRoot
     xml:space="preserve"
     id="flowRoot3348"
     style="font-style:normal;font-weight:normal;font-size:40px;line-height:125%;font-family:sans-serif;letter-spacing:0px;word-spacing:0px;fill:#000000;fill-opacity:1;stroke:none;stroke-width:1px;stroke-linecap:butt;stroke-linejoin:miter;stroke-opacity:1"
     transform="translate(-8.6,-10.9)"><flowRegion
       id="flowRegion3350"><rect
         id="rect3352"
         width="185.91101"
         height="60.381355"
         x="-57.203388"
         y="94.809319" /></flowRegion><flowPara
       id="flowPara3354"></flowPara></flowRoot></svg>